<svg fill="none" height="239" viewBox="0 0 956 239" width="956" xmlns="http://www.w3.org/2000/svg"><path d="m422.139 235.292c-2.469 1.286-7.681 2.559-14.257 2.559-15.212 0-26.59-9.649-26.59-27.483 0-17.04 11.46-28.441 28.2-28.441 6.658 0 10.983 1.437 12.824 2.408l-1.773 5.708c-3.39-1.562-7.089-2.334-10.819-2.258-12.647 0-21.051 8.13-21.051 22.35 0 13.331 7.585 21.79 20.655 21.79 3.935.056 7.839-.713 11.46-2.259zm55.841-52.489v22.665h26.098v-22.665h7.067v54.172h-7.067v-25.416h-26.098v25.416h-7.054v-54.172zm92.267 0v32.15c0 12.058 5.361 17.191 12.592 17.191 7.926 0 13.124-5.297 13.124-17.191v-32.15h7.054v31.685c0 16.629-8.732 23.363-20.465 23.363-11.064 0-19.4-6.255-19.4-23.117v-31.931zm84.927.807c4.405-.816 8.876-1.219 13.356-1.204 7.463 0 12.279 1.464 15.717 4.489 1.395 1.318 2.494 2.919 3.226 4.695.731 1.777 1.078 3.69 1.017 5.611 0 7.063-4.571 11.798-10.192 13.687v.26c4.093 1.369 6.576 5.297 7.954 10.95 1.774 7.541 3.029 12.769 4.093 14.85h-7.217c-.873-1.547-2.074-6.187-3.533-12.962-1.583-7.445-4.544-10.265-10.915-10.525h-6.562v23.487h-6.958zm6.958 24.636h7.121c7.449 0 12.183-4.106 12.183-10.292 0-6.994-5.048-10.046-12.415-10.046-2.314-.055-4.627.166-6.889.657zm114.068 27.087c-2.497 1.286-7.695 2.559-14.27 2.559-15.226 0-26.604-9.649-26.604-27.483 0-17.04 11.474-28.441 28.2-28.441 6.658 0 10.982 1.437 12.824 2.409l-1.773 5.707c-3.381-1.561-7.071-2.333-10.792-2.258-12.661 0-21.078 8.13-21.078 22.35 0 13.331 7.612 21.79 20.655 21.79 3.94.059 7.848-.71 11.474-2.259zm55.813-52.489v22.665h26.126v-22.706h7.054v54.172h-7.054v-25.416h-26.126v25.416h-7.04v-54.172zm-462.099-145.5191h-66.182v27.5243h60.752v22.597h-60.752v33.4778h69.238v23.446h-94.655v-130.1486h91.667zm37.436 107.0451h-24.175v-130.0254h24.175zm75.036-94.3711c6.569 3.1142 12.109 8.0546 15.962 14.2343 3.888 6.0067 6.399 12.8034 7.354 19.9008.738 6.3586 1.002 12.7635.791 19.162h-67.191c.364 9.662 3.588 16.437 9.673 20.325 3.993 2.503 8.636 3.765 13.342 3.627 4.871.217 9.654-1.355 13.452-4.421 2.079-1.858 3.772-4.109 4.98-6.625h24.557c-.655 5.703-3.638 11.502-8.949 17.396-8.286 9.362-19.869 14.038-34.749 14.029-11.914.142-23.473-4.065-32.525-11.839-9.431-7.92-14.147-20.79-14.147-38.6105 0-16.6797 4.243-29.4541 12.728-38.3232 8.486-8.8691 19.496-13.3173 33.03-13.3447 7.485-.1242 14.906 1.4086 21.733 4.4893zm-36.031 21.7895c-3.628 4.081-5.881 9.2055-6.439 14.6449h41.679c-.437-6.5696-2.583-11.5562-6.44-14.9597-3.976-3.4377-9.092-5.2545-14.338-5.0915-6.231 0-11.051 1.8021-14.462 5.4063zm120.917-23.7604h25.922l-33.452 96.342h-25.431l-33.152-96.342h27.149l19.25 71.049zm67.656 37.8031c3.302-.3019 6.551-1.0429 9.659-2.2036 3.479-1.5329 5.211-3.9281 5.211-7.1582 0-3.9418-1.364-6.6792-3.997-8.2121s-6.59-2.2583-11.76-2.2583c-5.794 0-9.887 1.4736-12.279 4.4208-1.897 2.5907-3.087 5.6339-3.451 8.828h-23.384c.518-8.4219 2.792-15.3384 6.821-20.7492 6.421-8.4859 17.449-12.7243 33.084-12.7151 9.418-.1836 18.734 1.9697 27.122 6.2685 7.904 4.17 11.856 12.0627 11.856 23.6783v44.2358c0 3.066 0 6.844.164 11.141.177 3.258.654 5.475 1.459 6.638.928 1.265 2.176 2.258 3.616 2.875v3.75h-26.386c-.686-1.771-1.198-3.604-1.528-5.475-.286-1.711-.504-3.654-.668-5.83-3.37 3.787-7.288 7.044-11.624 9.662-5.369 3.174-11.505 4.803-17.736 4.709-8.413 0-15.371-2.487-20.873-7.46-5.503-4.973-8.232-12.03-8.186-21.173 0-11.862 4.42-20.4347 13.261-25.7178 4.848-2.8743 11.974-4.9319 21.378-6.1728zm14.789 11.7297c-1.482.9643-3.053 1.7803-4.694 2.4362-2.122.766-4.31 1.338-6.535 1.711l-5.457 1.054c-3.875.523-7.637 1.689-11.132 3.449-1.846 1.074-3.358 2.641-4.37 4.525-1.011 1.885-1.482 4.014-1.36 6.151 0 4.297 1.173 7.404 3.492 9.32 2.405 1.936 5.418 2.95 8.5 2.861 5.255.011 10.378-1.657 14.625-4.763 4.466-3.175 6.78-8.97 6.944-17.382zm26.972-30.8365v-17.6698h12.906l.409-15.822 23.602-11.1959v27.0179h15.008v17.6698h-15.008v51.0927c0 3.97.478 6.433 1.433 7.419.955.985 3.915 1.464 8.827 1.464.75 0 1.528 0 2.346-.096.819-.096 1.624-.137 2.415-.246v18.86l-11.474.507c-11.46.41-19.286-1.656-23.479-6.2-2.729-2.902-4.093-7.359-4.093-13.372v-59.4287zm83.303-29.9058h-24.557v-23.2677h24.557zm-24.557 11.2095h24.557v96.342h-24.557zm116.565 84.544c-7.804 10.037-19.659 15.055-35.567 15.055s-27.763-5.018-35.567-15.055-11.71-22.091-11.719-36.1609c0-13.8603 3.906-25.8682 11.719-36.0239 7.813-10.1556 19.687-15.2289 35.622-15.2198 15.944 0 27.799 5.0733 35.567 15.2198 7.767 10.1466 11.673 22.1545 11.719 36.0239 0 14.0979-3.907 26.1509-11.719 36.1609zm-19.291-13.687c3.793-5.228 5.689-12.674 5.689-22.3371 0-9.6629-1.878-17.1131-5.634-22.3506-3.793-5.2193-9.25-7.8243-16.372-7.8152s-12.579 2.6142-16.371 7.8152c-3.82 5.2192-5.73 12.6512-5.73 22.2959 0 9.6448 1.91 17.0908 5.73 22.3368 3.829 5.247 9.286 7.87 16.371 7.87s12.542-2.623 16.372-7.87zm114.15-65.1906c6.067 5.2192 9.096 13.8556 9.086 25.9092v64.8214h-24.761v-58.6212c.19-3.9812-.471-7.9572-1.938-11.6613-2.365-4.9546-6.848-7.4274-13.452-7.4182-8.122 0-13.697 3.6179-16.726 10.8536-1.713 4.6945-2.51 9.6759-2.346 14.6724v52.1197h-24.176v-95.9998h23.357v13.9606c2.32-4.0252 5.295-7.6333 8.8-10.6758 4.957-3.887 11.237-5.8306 18.841-5.8306 9.522 0 17.312 2.6051 23.37 7.8152z" fill="#000"/><path clip-rule="evenodd" d="m149.046 3.69769c22.904 5.83199 43.564 18.32021 59.369 35.88661 21.176 23.6099 32.114 54.6549 30.413 86.3187-1.701 31.665-15.902 61.36-39.485 82.568-17.596 15.773-39.475 25.978-62.872 29.324-23.396 3.347-47.26-.315-68.5753-10.523-21.3153-10.207-39.1254-26.502-51.1796-46.825s-17.81141-43.762-16.544077-67.355c1.267337-23.5928 9.502327-46.2807 23.664277-65.1964 14.162-18.9158 33.6152-33.2103 55.9014-41.07707 22.2863-7.86681 46.4053-8.95284 69.3083-3.12084zm-29.601 82.19291 40.285 53.6054 41.926-.068-82.211-109.553-82.1013 109.553h42.255z" fill="#ff671f" fill-rule="evenodd"/><path d="m159.73 139.496-40.285-53.6054-39.8463 53.5374h-42.2549l82.1012-109.553 82.211 109.553z" fill="#fff"/></svg>