<svg width="542" height="90" viewBox="0 0 542 90" fill="none" xmlns="http://www.w3.org/2000/svg">
<g clip-path="url(#clip0_1807_1487)">
<path d="M54.3265 44.6705C54.3265 44.6705 64.4622 59.5441 61.474 68.3353V68.3478C59.4861 76.3552 41.766 83.027 28.4015 81.0267C0.374634 75.9351 38.1257 48.5833 38.1257 48.5833L47.5777 42.1184L45.153 32.2926C45.153 32.2926 18.348 56.2145 2.60944 60.6226C9.11126 77.7911 25.7552 89.9997 45.2796 89.9997C70.4639 89.9997 90.8683 69.6771 90.8683 44.6141C90.8683 39.8736 90.1403 35.2899 88.7728 30.9821C79.9602 32.5497 68.343 36.3245 54.3328 44.6705H54.3265Z" fill="#1980CC"/>
<path d="M49.9444 63.2815C52.654 56.5032 49.3936 48.6902 49.3936 48.6902C40.1378 54.3022 25.3046 70.6368 31.1037 73.6905H31.091C35.1301 75.8162 47.2348 70.0599 49.9444 63.2815Z" fill="#1980CC"/>
<path d="M66.6136 8.54665C69.7917 8.54665 66.0945 17.7768 63.9166 18.5041C62.1313 18.5794 53.5087 22.8308 50.4952 29.2643C48.3553 33.8292 52.0652 40.3504 52.0652 40.3504C52.0652 40.3504 69.6208 30.5309 87.5055 27.7217C80.6682 11.4436 64.4358 0 45.5001 0C20.3791 0 0 20.1658 0 45.0219C0 47.2668 0.170934 49.4802 0.493809 51.6373C6.52082 50.2578 15.1625 46.6272 26.9822 38.1307C44.2402 25.9785 52.2488 8.54037 66.6199 8.54037L66.6136 8.54665Z" fill="#1980CC"/>
<path d="M134.178 43.9871C133.444 43.5356 132.627 43.1845 131.728 42.9274C130.823 42.6703 129.892 42.4759 128.923 42.3317C127.955 42.1937 127.018 42.0746 126.119 41.9805C125.214 41.8865 124.397 41.7862 123.669 41.6858C122.934 41.5855 122.358 41.435 121.928 41.2469C121.504 41.0588 121.288 40.7954 121.288 40.4568C121.288 40.2311 121.434 40.0179 121.732 39.8235C122.023 39.6228 122.479 39.4723 123.086 39.3595C123.694 39.2466 124.454 39.1902 125.366 39.1902C126.277 39.1902 126.98 39.278 127.531 39.4598C128.081 39.6416 128.48 39.8737 128.727 40.1621C128.974 40.4568 129.094 40.7891 129.094 41.1654V41.2782H135.906V40.9396C135.906 39.8486 135.622 38.9205 135.052 38.1618C134.482 37.4031 133.697 36.7823 132.703 36.312C131.703 35.8417 130.557 35.4969 129.253 35.2837C127.949 35.0705 126.562 34.9576 125.081 34.9576C123.599 34.9576 122.251 35.0705 120.921 35.2962C119.592 35.522 118.414 35.8794 117.389 36.3685C116.363 36.8576 115.553 37.4972 114.951 38.2872C114.356 39.0773 114.052 40.0367 114.052 41.1654C114.052 42.2188 114.267 43.1092 114.692 43.8429C115.116 44.5765 115.698 45.1785 116.426 45.6488C117.154 46.119 117.971 46.489 118.876 46.7649C119.775 47.0345 120.712 47.2477 121.681 47.3982C122.65 47.5487 123.587 47.6678 124.486 47.7619C125.385 47.856 126.201 47.9563 126.936 48.0566C127.664 48.1632 128.246 48.3074 128.677 48.4955C129.107 48.6837 129.316 48.947 129.316 49.2856C129.316 49.5302 129.227 49.7308 129.044 49.8939C128.86 50.0506 128.626 50.1823 128.335 50.2764C128.037 50.3704 127.708 50.4394 127.341 50.4896C126.974 50.5397 126.587 50.5648 126.201 50.5773C125.809 50.5836 125.435 50.5899 125.074 50.5899C124.182 50.5899 123.39 50.5397 122.713 50.4331C122.029 50.3328 121.497 50.1259 121.117 49.8249C120.738 49.5239 120.548 49.0912 120.548 48.5269V48.3451C120.548 48.2823 120.56 48.2071 120.579 48.1319H113.71C113.691 48.2071 113.685 48.2761 113.685 48.3451V48.5018C113.685 49.7998 114.002 50.8783 114.622 51.7311C115.249 52.5902 116.11 53.2548 117.218 53.7314C118.319 54.2142 119.598 54.5528 121.061 54.7472C122.523 54.9479 124.099 55.0419 125.79 55.0419C127.841 55.0419 129.677 54.8099 131.304 54.3522C132.925 53.8944 134.21 53.1608 135.147 52.1638C136.09 51.1668 136.559 49.8688 136.559 48.2698C136.559 47.254 136.343 46.4012 135.919 45.7052C135.489 45.0092 134.912 44.4323 134.178 43.9808V43.9871Z" fill="#242424"/>
<path d="M146.559 35.2905L137.069 54.7039H144.337L145.477 52.1392H155.081L156.252 54.7039H163.798L154.315 35.2905H146.566H146.559ZM147.61 47.311L148.978 44.0378C149.092 43.7744 149.218 43.4421 149.364 43.0471C149.51 42.652 149.655 42.2507 149.807 41.8369C149.959 41.423 150.092 41.0531 150.206 40.7395H150.402C150.497 41.0029 150.598 41.2913 150.7 41.6111C150.801 41.9309 150.915 42.2507 151.029 42.5705C151.143 42.8903 151.244 43.1787 151.339 43.4296C151.434 43.6867 151.51 43.8873 151.567 44.0378L152.935 47.311H147.604H147.61Z" fill="#242424"/>
<path d="M183.925 36.4189C182.159 35.6664 180.063 35.2902 177.632 35.2902H166.236V54.7035H177.632C180.063 54.7035 182.159 54.3273 183.925 53.5749C185.691 52.8224 187.046 51.7251 188.002 50.2766C188.952 48.8281 189.426 47.0661 189.426 44.9969C189.426 42.9276 188.952 41.1719 188.002 39.7171C187.052 38.2686 185.691 37.165 183.925 36.4126V36.4189ZM182.184 45.3104C182.184 45.9876 182.07 46.6021 181.842 47.1602C181.614 47.712 181.279 48.1948 180.842 48.5961C180.405 49.0037 179.88 49.3172 179.272 49.5429C178.664 49.7687 177.968 49.8816 177.189 49.8816H173.257V40.1184H177.189C177.968 40.1184 178.658 40.225 179.272 40.4445C179.88 40.6577 180.399 40.9712 180.842 41.3725C181.279 41.7801 181.608 42.2504 181.842 42.7959C182.07 43.3415 182.184 43.956 182.184 44.6332V45.3104Z" fill="#242424"/>
<path d="M210.458 36.4192C208.692 35.6667 206.597 35.2905 204.166 35.2905H192.77V54.7039H204.166C206.597 54.7039 208.692 54.3276 210.458 53.5752C212.225 52.8227 213.58 51.7254 214.536 50.2769C215.485 48.8284 215.96 47.0664 215.96 44.9972C215.96 42.9279 215.485 41.1722 214.536 39.7174C213.586 38.269 212.225 37.1654 210.458 36.4129V36.4192ZM208.717 45.3107C208.717 45.9879 208.603 46.6024 208.376 47.1605C208.148 47.7123 207.812 48.1951 207.375 48.5964C206.938 49.004 206.413 49.3175 205.805 49.5433C205.197 49.769 204.501 49.8819 203.722 49.8819H199.791V40.1188H203.722C204.501 40.1188 205.191 40.2254 205.805 40.4448C206.413 40.658 206.932 40.9715 207.375 41.3729C207.812 41.7804 208.141 42.2507 208.376 42.7962C208.603 43.3418 208.717 43.9563 208.717 44.6335V45.3107Z" fill="#242424"/>
<path d="M226.051 35.2905H219.018V54.7039H238.757V49.374H226.051V35.2905Z" fill="#242424"/>
<path d="M249.531 47.1981H261.496V42.6269H249.531V40.1188H263.408V35.2905H242.466V54.7039H263.636V49.8819H249.531V47.1981Z" fill="#242424"/>
<path d="M288.873 45.4675C288.266 45.1038 287.594 44.8404 286.854 44.6899V44.5771C287.5 44.4078 288.095 44.1507 288.633 43.7995C289.171 43.4546 289.608 42.9781 289.931 42.3761C290.253 41.7742 290.418 41.0029 290.418 40.0623C290.418 39.1218 290.158 38.2941 289.633 37.5792C289.108 36.8644 288.405 36.3063 287.525 35.8987C286.639 35.4974 285.657 35.2905 284.575 35.2905H267.652V54.7039H284.746C285.885 54.7039 286.917 54.4907 287.848 54.0517C288.778 53.6191 289.513 53.0171 290.057 52.2458C290.595 51.4746 290.868 50.5716 290.868 49.537C290.868 48.5024 290.684 47.6559 290.329 46.9975C289.969 46.3391 289.487 45.8249 288.88 45.4612L288.873 45.4675ZM274.686 39.5544H281.466C281.941 39.5544 282.353 39.6986 282.694 39.9933C283.036 40.2881 283.207 40.6392 283.207 41.0531C283.207 41.4669 283.138 41.7742 282.992 42.0375C282.846 42.3009 282.65 42.5015 282.397 42.6458C282.137 42.7837 281.833 42.8589 281.473 42.8589H274.692V39.5544H274.686ZM283.176 49.7439C282.853 50.0449 282.435 50.1954 281.922 50.1954H274.686V46.8658H281.922C282.264 46.8658 282.568 46.9348 282.834 47.0664C283.1 47.1981 283.302 47.38 283.448 47.6182C283.587 47.8565 283.663 48.1136 283.663 48.3958C283.663 48.9977 283.498 49.4492 283.176 49.7502V49.7439Z" fill="#242424"/>
<path d="M301.463 35.2905L291.973 54.7039H299.241L300.381 52.1392H309.985L311.15 54.7039H318.702L309.212 35.2905H301.463ZM302.514 47.311L303.882 44.0378C303.996 43.7744 304.122 43.4421 304.268 43.0471C304.414 42.652 304.559 42.2507 304.711 41.8369C304.863 41.423 304.996 41.0531 305.11 40.7395H305.306C305.401 41.0029 305.502 41.2913 305.604 41.6111C305.705 41.9309 305.819 42.2507 305.933 42.5705C306.047 42.8903 306.148 43.1787 306.25 43.4296C306.344 43.6867 306.42 43.8873 306.477 44.0378L307.845 47.311H302.514Z" fill="#242424"/>
<path d="M326.617 42.1814C326.99 41.4478 327.566 40.8646 328.358 40.432C329.149 39.9993 330.149 39.7798 331.365 39.7798C332.334 39.7798 333.176 39.9303 333.897 40.2313C334.619 40.5323 335.183 40.9461 335.581 41.4729C335.98 41.9996 336.177 42.6015 336.177 43.2788H343.014C343.014 41.6422 342.526 40.2 341.545 38.9459C340.564 37.6918 339.215 36.7136 337.487 36.0113C335.759 35.309 333.758 34.9516 331.473 34.9516C327.332 34.9516 324.192 35.8232 322.046 37.5601C319.9 39.297 318.83 41.7801 318.83 44.9969C318.83 47.1978 319.292 49.0413 320.21 50.5274C321.134 52.0135 322.521 53.1359 324.382 53.9009C326.243 54.6659 328.586 55.0422 331.422 55.0422C333.853 55.0422 335.93 54.691 337.658 53.9824C339.386 53.2802 340.709 52.302 341.634 51.0604C342.552 49.8189 343.014 48.408 343.014 46.8278H336.373C336.373 47.5051 336.17 48.1008 335.759 48.6024C335.347 49.1103 334.758 49.5053 333.992 49.7875C333.226 50.0697 332.296 50.2139 331.213 50.2139C330.036 50.2139 329.067 49.9882 328.307 49.5367C327.548 49.0852 326.984 48.4895 326.611 47.7433C326.243 46.9971 326.053 46.1945 326.053 45.3292V44.6269C326.053 43.724 326.237 42.9025 326.611 42.1689L326.617 42.1814Z" fill="#242424"/>
<path d="M370.864 35.2905H362.147L352.663 43.8748V35.2905H345.623V54.7039H352.663V50.8977L357.019 47.3988L362.514 54.7039H371.092L362.204 43.2226L370.864 35.2905Z" fill="#242424"/>
<path d="M390.99 42.1815C391.364 41.4479 391.94 40.8647 392.731 40.4321C393.522 39.9994 394.523 39.7799 395.738 39.7799C396.707 39.7799 397.549 39.9304 398.271 40.2314C398.992 40.5324 399.556 40.9462 399.955 41.473C400.353 41.9997 400.55 42.6016 400.55 43.2789H407.387C407.387 41.6423 406.9 40.2001 405.918 38.946C404.937 37.6919 403.588 36.7137 401.86 36.0114C400.132 35.3091 398.131 34.9517 395.846 34.9517C391.705 34.9517 388.565 35.8233 386.419 37.5602C384.273 39.2971 383.203 41.7802 383.203 44.997C383.203 47.1979 383.665 49.0414 384.583 50.5275C385.507 52.0136 386.894 53.136 388.755 53.901C390.616 54.666 392.959 55.0423 395.795 55.0423C398.226 55.0423 400.303 54.6911 402.031 53.9825C403.759 53.2803 405.083 52.3021 406.007 51.0605C406.925 49.819 407.387 48.4081 407.387 46.8279H400.746C400.746 47.5052 400.543 48.1009 400.132 48.6025C399.72 49.1104 399.132 49.5054 398.365 49.7876C397.599 50.0698 396.669 50.214 395.586 50.214C394.409 50.214 393.44 49.9883 392.68 49.5368C391.921 49.0853 391.357 48.4896 390.984 47.7434C390.616 46.9972 390.427 46.1946 390.427 45.3293V44.627C390.427 43.7241 390.61 42.9026 390.984 42.169L390.99 42.1815Z" fill="#242424"/>
<path d="M427.202 42.1814H416.743V35.2902H409.71V54.7035H416.743V47.5113H427.202V54.7035H434.236V35.2902H427.202V42.1814Z" fill="#242424"/>
<path d="M454.862 45.0533C454.862 46.6711 454.431 47.9314 453.564 48.8344C452.696 49.7373 451.481 50.1888 449.905 50.1888C448.328 50.1888 447.138 49.7373 446.271 48.8344C445.403 47.9314 444.973 46.6711 444.973 45.0533V35.2902H437.933V45.3668C437.933 47.4549 438.37 49.2169 439.243 50.6591C440.117 52.095 441.434 53.1924 443.2 53.9323C444.966 54.6785 447.195 55.0484 449.898 55.0484C452.602 55.0484 454.83 54.6785 456.609 53.9323C458.382 53.1924 459.711 52.1013 460.585 50.6591C461.458 49.2232 461.895 47.4549 461.895 45.3668V35.2902H454.855V45.0533H454.862Z" fill="#242424"/>
<path d="M488.307 45.185C488.883 44.1817 489.174 43.0279 489.174 41.7299C489.174 40.6012 488.927 39.5478 488.434 38.5696C487.94 37.5914 487.205 36.8013 486.224 36.1994C485.243 35.5974 484.027 35.2964 482.565 35.2964H465.585V54.7098H472.625V48.6463H478.722L481.685 54.7098H489.63L485.756 47.5991C486.876 46.9971 487.725 46.1945 488.307 45.185ZM481.425 43.3226C481.064 43.655 480.615 43.818 480.09 43.818H472.625V40.1247H480.09C480.45 40.1247 480.767 40.1937 481.045 40.3379C481.318 40.4821 481.546 40.689 481.717 40.9587C481.887 41.2346 481.976 41.5669 481.976 41.9619C481.976 42.5451 481.793 43.0028 481.432 43.3289L481.425 43.3226Z" fill="#242424"/>
<path d="M498.755 42.1815C499.128 41.4479 499.704 40.8647 500.496 40.4321C501.287 39.9994 502.287 39.7799 503.503 39.7799C504.472 39.7799 505.314 39.9304 506.035 40.2314C506.757 40.5324 507.32 40.9462 507.719 41.473C508.118 41.9997 508.314 42.6016 508.314 43.2789H515.152C515.152 41.6423 514.664 40.2001 513.683 38.946C512.702 37.6919 511.353 36.7137 509.625 36.0114C507.897 35.3091 505.896 34.9517 503.611 34.9517C499.47 34.9517 496.33 35.8233 494.184 37.5602C492.038 39.2971 490.968 41.7802 490.968 44.997C490.968 47.1979 491.43 49.0414 492.348 50.5275C493.272 52.0136 494.659 53.136 496.52 53.901C498.381 54.666 500.724 55.0423 503.56 55.0423C505.991 55.0423 508.068 54.6911 509.796 53.9825C511.524 53.2803 512.847 52.3021 513.772 51.0605C514.69 49.819 515.152 48.4081 515.152 46.8279H508.511C508.511 47.5052 508.308 48.1009 507.897 48.6025C507.485 49.1104 506.896 49.5054 506.13 49.7876C505.364 50.0698 504.434 50.214 503.351 50.214C502.174 50.214 501.205 49.9883 500.445 49.5368C499.685 49.0853 499.122 48.4896 498.748 47.7434C498.381 46.9972 498.191 46.1946 498.191 45.3293V44.627C498.191 43.7241 498.375 42.9026 498.748 42.169L498.755 42.1815Z" fill="#242424"/>
<path d="M534.967 35.2905V42.1817H524.509V35.2905H517.475V54.7039H524.509V47.5116H534.967V54.7039H542.001V35.2905H534.967Z" fill="#242424"/>
</g>
<defs>
<clipPath id="clip0_1807_1487">
<rect width="542" height="90" fill="white"/>
</clipPath>
</defs>
</svg>
